<mxfile host="65bd71144e">
    <diagram id="Irtsh1Noli5vckAbe6gO" name="Page-1">
        <mxGraphModel dx="1389" dy="807" grid="1" gridSize="10" guides="1" tooltips="1" connect="1" arrows="1" fold="1" page="1" pageScale="1" pageWidth="850" pageHeight="1100" math="0" shadow="0">
            <root>
                <mxCell id="0"/>
                <mxCell id="1" parent="0"/>
                <mxCell id="2" value="ns:RelationInstance" style="rounded=0;whiteSpace=wrap;html=1;snapToPoint=1;points=[[0.1,0],[0.2,0],[0.3,0],[0.4,0],[0.5,0],[0.6,0],[0.7,0],[0.8,0],[0.9,0],[0,0.1],[0,0.3],[0,0.5],[0,0.7],[0,0.9],[0.1,1],[0.2,1],[0.3,1],[0.4,1],[0.5,1],[0.6,1],[0.7,1],[0.8,1],[0.9,1],[1,0.1],[1,0.3],[1,0.5],[1,0.7],[1,0.9]];" vertex="1" parent="1">
                    <mxGeometry x="374" y="210" width="116" height="30" as="geometry"/>
                </mxCell>
                <mxCell id="3" value="owl:Thing" style="rounded=0;whiteSpace=wrap;html=1;snapToPoint=1;points=[[0.1,0],[0.2,0],[0.3,0],[0.4,0],[0.5,0],[0.6,0],[0.7,0],[0.8,0],[0.9,0],[0,0.1],[0,0.3],[0,0.5],[0,0.7],[0,0.9],[0.1,1],[0.2,1],[0.3,1],[0.4,1],[0.5,1],[0.6,1],[0.7,1],[0.8,1],[0.9,1],[1,0.1],[1,0.3],[1,0.5],[1,0.7],[1,0.9]];" vertex="1" parent="1">
                    <mxGeometry x="100" y="210" width="100" height="30" as="geometry"/>
                </mxCell>
                <mxCell id="4" value="" style="endArrow=classic;html=1;exitX=1;exitY=0.1;exitDx=0;exitDy=0;entryX=0;entryY=0.1;entryDx=0;entryDy=0;endSize=8;arcSize=0;" edge="1" source="3" target="2" parent="1">
                    <mxGeometry width="50" height="50" relative="1" as="geometry">
                        <mxPoint x="80" y="328.33" as="sourcePoint"/>
                        <mxPoint x="292.0000000000002" y="328.33" as="targetPoint"/>
                        <Array as="points">
                            <mxPoint x="290" y="190"/>
                        </Array>
                    </mxGeometry>
                </mxCell>
                <mxCell id="5" value="&lt;div&gt;ns:isPartOf&lt;/div&gt;" style="text;html=1;align=center;verticalAlign=middle;resizable=0;points=[];labelBackgroundColor=#ffffff;" vertex="1" connectable="0" parent="4">
                    <mxGeometry x="-0.1269" relative="1" as="geometry">
                        <mxPoint x="4.17" as="offset"/>
                    </mxGeometry>
                </mxCell>
                <mxCell id="6" value="" style="endArrow=classic;html=1;exitX=0;exitY=0.9;exitDx=0;exitDy=0;endSize=8;arcSize=0;entryX=1;entryY=0.9;entryDx=0;entryDy=0;" edge="1" parent="1" source="2" target="3">
                    <mxGeometry width="50" height="50" relative="1" as="geometry">
                        <mxPoint x="210" y="235" as="sourcePoint"/>
                        <mxPoint x="220" y="225" as="targetPoint"/>
                        <Array as="points">
                            <mxPoint x="290" y="270"/>
                        </Array>
                    </mxGeometry>
                </mxCell>
                <mxCell id="7" value="&lt;div&gt;ns:hasWhole&lt;/div&gt;" style="text;html=1;align=center;verticalAlign=middle;resizable=0;points=[];labelBackgroundColor=#ffffff;" vertex="1" connectable="0" parent="6">
                    <mxGeometry x="-0.1269" relative="1" as="geometry">
                        <mxPoint x="-8" as="offset"/>
                    </mxGeometry>
                </mxCell>
                <mxCell id="9" value="" style="endArrow=block;html=1;fontColor=#000099;exitX=0;exitY=0.5;exitDx=0;exitDy=0;endFill=0;entryX=1;entryY=0.5;entryDx=0;entryDy=0;endSize=8;arcSize=0;" edge="1" source="11" target="2" parent="1">
                    <mxGeometry width="50" height="50" relative="1" as="geometry">
                        <mxPoint x="455" y="210" as="sourcePoint"/>
                        <mxPoint x="612.9999999999893" y="210" as="targetPoint"/>
                    </mxGeometry>
                </mxCell>
                <mxCell id="11" value="PO-Component-Type&lt;br&gt;PO-Member-Type&lt;br&gt;PO-Portion-Type&lt;br&gt;PO-Feature-Type&lt;br&gt;PO-Place-Type&lt;br&gt;PO-Part-Of-Type&lt;br&gt;Spatially-Located-In-Type" style="rounded=0;whiteSpace=wrap;html=1;snapToPoint=1;points=[[0.1,0],[0.2,0],[0.3,0],[0.4,0],[0.5,0],[0.6,0],[0.7,0],[0.8,0],[0.9,0],[0,0.1],[0,0.3],[0,0.5],[0,0.7],[0,0.9],[0.1,1],[0.2,1],[0.3,1],[0.4,1],[0.5,1],[0.6,1],[0.7,1],[0.8,1],[0.9,1],[1,0.1],[1,0.3],[1,0.5],[1,0.7],[1,0.9]];" vertex="1" parent="1">
                    <mxGeometry x="550" y="160" width="160" height="130" as="geometry"/>
                </mxCell>
            </root>
        </mxGraphModel>
    </diagram>
</mxfile>